<svg width="70" height="70" viewBox="0 0 70 70" fill="none" xmlns="http://www.w3.org/2000/svg">
<path fill-rule="evenodd" clip-rule="evenodd" d="M62.5533 15.5886C63.0603 15.6817 63.5096 15.9725 63.8023 16.3969C64.095 16.8214 64.2072 17.3448 64.1142 17.852C61.282 33.2675 54.4416 43.9581 44.802 50.7539C35.2071 57.5206 23.0502 60.2778 9.82036 60.2778H1.94386C1.42831 60.2778 0.933886 60.0729 0.569342 59.7083C0.204799 59.3436 0 58.849 0 58.3333C0 57.8176 0.204799 57.3231 0.569342 56.9584C0.933886 56.5938 1.42831 56.3889 1.94386 56.3889H9.82036C22.5565 56.3889 33.8347 53.7289 42.5607 47.5767C51.2439 41.4556 57.612 31.7295 60.2926 17.1481C60.3857 16.6409 60.6763 16.1915 61.1006 15.8987C61.525 15.6059 62.0482 15.4936 62.5552 15.5867L62.5533 15.5886Z" fill="white"/>
<path fill-rule="evenodd" clip-rule="evenodd" d="M63.4011 13.6694C63.6671 13.7355 63.9162 13.8572 64.132 14.0264C64.3477 14.1957 64.5253 14.4087 64.6529 14.6514L69.7555 24.3736C69.8814 24.6002 69.9607 24.8496 69.9888 25.1073C70.0169 25.3649 69.9932 25.6256 69.9192 25.874C69.8451 26.1223 69.7221 26.3534 69.5575 26.5535C69.3929 26.7537 69.1899 26.9189 68.9606 27.0394C68.7312 27.16 68.48 27.2335 68.2219 27.2555C67.9637 27.2776 67.7037 27.2478 67.4572 27.1679C67.2107 27.088 66.9827 26.9596 66.7865 26.7903C66.5904 26.621 66.43 26.4141 66.3149 26.1819L62.2289 18.3964L55.5284 22.993C55.1031 23.2849 54.5793 23.3959 54.0722 23.3014C53.5651 23.207 53.1163 22.9149 52.8245 22.4894C52.5327 22.064 52.4219 21.54 52.5163 21.0328C52.6107 20.5255 52.9027 20.0766 53.328 19.7847L61.8343 13.9514C62.0606 13.7961 62.3172 13.6905 62.5873 13.6416C62.8573 13.5927 63.1347 13.6015 63.4011 13.6675V13.6694Z" fill="white"/>
<path fill-rule="evenodd" clip-rule="evenodd" d="M3.88771 0V66.1111H69.9788V70H1.94386C1.42831 70 0.933886 69.7951 0.569342 69.4305C0.204799 69.0658 0 68.5713 0 68.0556V0H3.88771Z" fill="white"/>
<path fill-rule="evenodd" clip-rule="evenodd" d="M16.8998 26.9225C16.8928 26.9092 16.8864 26.8956 16.8804 26.8817C16.8376 26.7767 16.7463 26.4967 16.7463 25.9542C16.7463 23.0686 15.4692 21.2292 14.8646 20.36C14.7655 20.2161 14.6838 20.0975 14.6314 20.0081C14.2931 19.4403 13.6069 18.1978 13.6069 14.0834C13.6069 10.7739 15.0765 8.38031 17.448 6.68281C19.9361 4.90365 23.4701 3.88865 27.2139 3.88865C30.9578 3.88865 34.4937 4.90365 36.9799 6.68281C39.3514 8.38031 40.8209 10.7739 40.8209 14.0834C40.8209 18.1978 40.1347 19.4403 39.7985 20.0081C39.744 20.0975 39.6624 20.2161 39.5633 20.3581C38.9607 21.2292 37.6816 23.0686 37.6816 25.9542C37.6816 26.3431 37.6 26.5239 37.565 26.59C37.5156 26.6812 37.4474 26.7608 37.3648 26.8234C37.2698 26.8991 37.1652 26.9619 37.0537 27.01L37.0421 27.0159C36.2524 27.2106 35.5438 27.6486 35.0166 28.2681C34.7831 28.5399 34.5864 28.8413 34.4315 29.1645C34.3413 29.3471 34.257 29.5326 34.1788 29.7206C33.7529 30.7387 33.4166 31.792 33.1738 32.8686C31.6284 33.0495 29.5155 33.0553 27.2139 33.0553C24.9863 33.0553 22.9355 33.0495 21.4018 32.8861C21.3515 32.4273 21.2795 31.9712 21.186 31.5192C21.0353 30.7532 20.7713 30.014 20.4027 29.3259C20.0703 28.7309 18.9992 27.1286 16.8998 26.9225V26.9225ZM12.8586 25.9542C12.8586 29.9111 15.5508 30.79 16.4469 30.79C17.345 30.79 17.6443 33.4267 17.6443 35.1845C17.6443 36.9442 22.7275 36.9442 27.2139 36.9442C31.7004 36.9442 36.7835 36.9442 36.7835 35.1864C36.7835 33.4267 37.9051 30.79 37.981 30.79C38.0548 30.79 41.5693 29.9092 41.5693 25.9542C41.5693 24.3889 42.0592 23.6481 42.654 22.7536C43.5618 21.3886 44.7086 19.662 44.7086 14.0834C44.7086 -4.69413 9.71924 -4.69413 9.71924 14.0834C9.71924 19.6639 10.8661 21.3886 11.7739 22.7556C12.3687 23.65 12.8586 24.3889 12.8586 25.9542Z" fill="white"/>
<path fill-rule="evenodd" clip-rule="evenodd" d="M22.3543 19.4444C22.0965 19.4444 21.8493 19.5469 21.667 19.7292C21.4847 19.9115 21.3823 20.1588 21.3823 20.4167C21.3823 20.6745 21.4847 20.9218 21.667 21.1041C21.8493 21.2864 22.0965 21.3889 22.3543 21.3889C22.612 21.3889 22.8593 21.2864 23.0415 21.1041C23.2238 20.9218 23.3262 20.6745 23.3262 20.4167C23.3262 20.1588 23.2238 19.9115 23.0415 19.7292C22.8593 19.5469 22.612 19.4444 22.3543 19.4444V19.4444ZM17.4946 20.4167C17.4946 19.1274 18.0066 17.891 18.918 16.9793C19.8293 16.0677 21.0654 15.5555 22.3543 15.5555C23.6431 15.5555 24.8792 16.0677 25.7906 16.9793C26.7019 17.891 27.2139 19.1274 27.2139 20.4167C27.2139 21.7059 26.7019 22.9423 25.7906 23.854C24.8792 24.7656 23.6431 25.2778 22.3543 25.2778C21.0654 25.2778 19.8293 24.7656 18.918 23.854C18.0066 22.9423 17.4946 21.7059 17.4946 20.4167Z" fill="white"/>
<path fill-rule="evenodd" clip-rule="evenodd" d="M32.0056 19.4425C31.6919 19.4425 31.391 19.5671 31.1692 19.789C30.9474 20.0109 30.8228 20.3119 30.8228 20.6257C30.8228 20.9395 30.9474 21.2404 31.1692 21.4623C31.391 21.6842 31.6919 21.8089 32.0056 21.8089C32.3193 21.8089 32.6202 21.6842 32.842 21.4623C33.0638 21.2404 33.1884 20.9395 33.1884 20.6257C33.1884 20.3119 33.0638 20.0109 32.842 19.789C32.6202 19.5671 32.3193 19.4425 32.0056 19.4425V19.4425ZM26.936 20.6286C26.9223 19.9542 27.0432 19.2838 27.2916 18.6567C27.54 18.0295 27.911 17.4583 28.3828 16.9763C28.8545 16.4943 29.4177 16.1113 30.0392 15.8496C30.6608 15.588 31.3283 15.4529 32.0026 15.4524C32.677 15.4519 33.3446 15.5859 33.9666 15.8466C34.5885 16.1073 35.1523 16.4895 35.6248 16.9707C36.0973 17.452 36.4691 18.0227 36.7185 18.6494C36.9679 19.2762 37.0898 19.9464 37.0771 20.6208C37.0781 21.9663 36.5448 23.257 35.5945 24.2091C34.6441 25.1612 33.3545 25.6967 32.0095 25.6977C30.6644 25.6988 29.3741 25.1653 28.4222 24.2146C27.4704 23.264 26.9351 21.974 26.9341 20.6286H26.936Z" fill="white"/>
</svg>
