<svg width="70" height="70" viewBox="0 0 70 70" fill="none" xmlns="http://www.w3.org/2000/svg">
<path d="M67.0833 26.2492C67.8569 26.2492 68.5988 25.9419 69.1457 25.3949C69.6927 24.8479 70 24.1061 70 23.3325V14.5824C69.9997 13.9829 69.8148 13.3981 69.4704 12.9076C69.1259 12.417 68.6387 12.0444 68.075 11.8406L35.9917 0.173762C35.3509 -0.0579207 34.6491 -0.0579207 34.0083 0.173762L1.925 11.8406C1.36129 12.0444 0.87407 12.417 0.529628 12.9076C0.185186 13.3981 0.000255032 13.9829 0 14.5824V23.3325C0 24.1061 0.307291 24.8479 0.854272 25.3949C1.40125 25.9419 2.14312 26.2492 2.91667 26.2492H5.83333V64.1666H0V70H70V64.1666H64.1667V26.2492H67.0833ZM5.83333 16.6241L35 6.0072L64.1667 16.6241V20.4158H5.83333V16.6241ZM40.8333 64.1666H29.1667V26.2492H40.8333V64.1666ZM11.6667 26.2492H23.3333V64.1666H11.6667V26.2492ZM58.3333 64.1666H46.6667V26.2492H58.3333V64.1666Z" fill="white"/>
</svg>
