<svg width="70" height="70" viewBox="0 0 70 70" fill="none" xmlns="http://www.w3.org/2000/svg">
<g clip-path="url(#clip0_4_137)">
<path d="M34.7469 -0.0834381C34.6331 -0.0628776 34.5207 -0.0349993 34.4104 2.34685e-05C33.8026 0.136259 33.2608 0.479048 32.8773 0.969978C32.4939 1.46091 32.2926 2.0696 32.3077 2.69233V5.38464H8.07692C5.93479 5.38464 3.88039 6.2356 2.36568 7.75032C0.850959 9.26503 0 11.3194 0 13.4616L0 48.4616C0 52.92 3.61846 56.5385 8.07692 56.5385H32.3077V57.5481L17.6669 64.8685C17.02 65.1809 16.5237 65.7375 16.2871 66.4158C16.0506 67.0942 16.0932 67.8387 16.4056 68.4856C16.718 69.1325 17.2746 69.6289 17.9529 69.8654C18.6312 70.102 19.3758 70.0593 20.0227 69.7469L32.3077 63.6058V64.6154C32.3077 65.3295 32.5913 66.0143 33.0963 66.5192C33.6012 67.0241 34.286 67.3077 35 67.3077C35.714 67.3077 36.3988 67.0241 36.9037 66.5192C37.4087 66.0143 37.6923 65.3295 37.6923 64.6154V63.6058L49.9773 69.7469C50.6242 70.0593 51.3688 70.102 52.0471 69.8654C52.7254 69.6289 53.282 69.1325 53.5944 68.4856C53.9068 67.8387 53.9494 67.0942 53.7129 66.4158C53.4763 65.7375 52.98 65.1809 52.3331 64.8685L37.6923 57.5481V56.5385H61.9231C66.3815 56.5385 70 52.92 70 48.4616V13.4616C70 11.3194 69.149 9.26503 67.6343 7.75032C66.1196 6.2356 64.0652 5.38464 61.9231 5.38464H37.6923V2.69233C37.7059 2.30948 37.6376 1.92813 37.4921 1.57377C37.3465 1.21941 37.127 0.900201 36.8482 0.637459C36.5694 0.374718 36.2377 0.1745 35.8754 0.0501822C35.513 -0.0741355 35.1283 -0.11969 34.7469 -0.0834381V-0.0834381ZM5.38462 13.4616H64.6154V48.4616H5.38462V13.4616ZM56.2019 16.1539C55.5988 16.2187 55.0353 16.4853 54.6027 16.9104L45.7692 25.7466L39.6281 19.6C39.334 19.2982 38.9731 19.0697 38.5746 18.9328C38.1761 18.7959 37.751 18.7545 37.3335 18.8118C36.9161 18.8692 36.5179 19.0237 36.171 19.2631C35.8242 19.5024 35.5384 19.8197 35.3365 20.1896L27.3431 34.1573L24.0612 25.9108C23.9018 25.485 23.6372 25.1065 23.292 24.8106C22.9469 24.5147 22.5324 24.311 22.0873 24.2185C21.6421 24.1261 21.1808 24.1478 20.7464 24.2818C20.3119 24.4157 19.9185 24.6575 19.6027 24.9846L11.5258 33.0616C11.0117 33.5753 10.7227 34.2723 10.7224 34.9991C10.7222 35.7259 11.0107 36.423 11.5244 36.9371C12.0382 37.4512 12.7351 37.7402 13.4619 37.7405C14.1887 37.7407 14.8859 37.4522 15.4 36.9385L20.5315 31.8069L24.4031 41.3969C24.5858 41.8779 24.9025 42.2964 25.3157 42.603C25.7289 42.9096 26.2213 43.0913 26.7346 43.1267C27.2479 43.1621 27.7606 43.0497 28.2119 42.8028C28.6633 42.5559 29.0345 42.1848 29.2815 41.7335L38.2846 25.9996L43.8362 31.5539C44.0872 31.8136 44.388 32.0202 44.7206 32.1612C45.0531 32.3023 45.4107 32.375 45.7719 32.375C46.1332 32.375 46.4907 32.3023 46.8233 32.1612C47.1558 32.0202 47.4566 31.8136 47.7077 31.5539L58.4769 20.7846C58.9022 20.3909 59.1891 19.8704 59.2949 19.3006C59.4008 18.7308 59.3199 18.142 59.0643 17.6218C58.8088 17.1016 58.3922 16.6778 57.8765 16.4133C57.3608 16.1489 56.7735 16.0579 56.2019 16.1539Z" fill="white"/>
</g>
<defs>
<clipPath id="clip0_4_137">
<rect width="70" height="70" fill="white"/>
</clipPath>
</defs>
</svg>
