<svg width="70" height="70" viewBox="0 0 70 70" fill="none" xmlns="http://www.w3.org/2000/svg">
<path d="M59.0625 4.375C57.1687 4.37419 55.3258 4.98808 53.8108 6.1244C52.2957 7.26073 51.1905 8.85809 50.6611 10.6764C50.1317 12.4947 50.2068 14.4357 50.8751 16.2077C51.5434 17.9797 52.7687 19.4869 54.367 20.5028L48.6574 40.4865C48.4801 40.4752 48.3026 40.4693 48.125 40.4688C46.2428 40.4667 44.4106 41.0749 42.9033 42.2021L32.3549 33.4117C32.8543 31.9301 32.9475 30.3416 32.6249 28.8117C32.3023 27.2818 31.5756 25.8662 30.5205 24.7124C29.4653 23.5585 28.1203 22.7084 26.6252 22.2506C25.1302 21.7928 23.5398 21.7439 22.0195 22.1091C20.4991 22.4743 19.1044 23.2402 17.9805 24.3272C16.8565 25.4141 16.0443 26.7824 15.6284 28.2896C15.2125 29.7969 15.2081 31.388 15.6156 32.8976C16.0231 34.4071 16.8277 35.7799 17.9456 36.873L11.7533 49.2581C11.4821 49.2324 11.2099 49.2192 10.9375 49.2188C8.84128 49.2161 6.81358 49.965 5.22245 51.3297C3.63132 52.6944 2.58222 54.5844 2.26559 56.6566C1.94895 58.7287 2.38577 60.8457 3.49674 62.6233C4.60772 64.4009 6.31922 65.7213 8.32058 66.3447C10.3219 66.9682 12.4805 66.8534 14.4044 66.0212C16.3284 65.189 17.8902 63.6946 18.8064 61.8092C19.7225 59.9238 19.9324 57.7724 19.3977 55.7455C18.8631 53.7186 17.6195 51.9506 15.8926 50.7623L21.7442 39.0607C23.1656 39.4528 24.6632 39.4785 26.0972 39.1352C27.5312 38.792 28.8549 38.0911 29.9448 37.0979L40.1577 45.609C39.4642 47.1373 39.2248 48.8328 39.4682 50.4934C39.7115 52.154 40.4273 53.7095 41.5302 54.9746C42.633 56.2397 44.0765 57.1609 45.6884 57.6284C47.3002 58.0959 49.0126 58.09 50.6212 57.6113C52.2298 57.1326 53.6668 56.2015 54.7609 54.9288C55.855 53.6561 56.56 52.0956 56.7918 50.4334C57.0237 48.7712 56.7726 47.0773 56.0685 45.5539C55.3644 44.0304 54.237 42.7415 52.8207 41.841L58.5301 21.8572C58.7063 21.8679 58.8835 21.875 59.0625 21.875C61.3831 21.875 63.6087 20.9531 65.2497 19.3122C66.8906 17.6712 67.8125 15.4456 67.8125 13.125C67.8125 10.8044 66.8906 8.57876 65.2497 6.93782C63.6087 5.29687 61.3831 4.375 59.0625 4.375V4.375ZM10.9375 62.3438C10.0722 62.3438 9.22634 62.0872 8.50688 61.6064C7.78741 61.1257 7.22666 60.4424 6.89552 59.643C6.56439 58.8436 6.47775 57.9639 6.64656 57.1152C6.81537 56.2666 7.23205 55.487 7.8439 54.8752C8.45576 54.2633 9.23531 53.8466 10.084 53.6778C10.9326 53.509 11.8123 53.5956 12.6117 53.9268C13.4112 54.2579 14.0944 54.8187 14.5752 55.5381C15.0559 56.2576 15.3125 57.1035 15.3125 57.9688C15.3112 59.1287 14.8498 60.2407 14.0296 61.0609C13.2095 61.8811 12.0974 62.3424 10.9375 62.3438V62.3438ZM24.0625 35C23.1972 35 22.3513 34.7434 21.6319 34.2627C20.9124 33.7819 20.3517 33.0987 20.0205 32.2992C19.6894 31.4998 19.6027 30.6201 19.7716 29.7715C19.9404 28.9228 20.357 28.1433 20.9689 27.5314C21.5808 26.9196 22.3603 26.5029 23.209 26.3341C24.0576 26.1653 24.9373 26.2519 25.7367 26.583C26.5362 26.9142 27.2194 27.4749 27.7002 28.1944C28.1809 28.9138 28.4375 29.7597 28.4375 30.625C28.4362 31.7849 27.9748 32.897 27.1546 33.7172C26.3345 34.5373 25.2224 34.9987 24.0625 35ZM48.125 53.5938C47.2597 53.5938 46.4138 53.3372 45.6944 52.8564C44.9749 52.3757 44.4142 51.6924 44.083 50.893C43.7519 50.0936 43.6652 49.2139 43.8341 48.3652C44.0029 47.5166 44.4195 46.737 45.0314 46.1252C45.6433 45.5133 46.4228 45.0966 47.2715 44.9278C48.1201 44.759 48.9998 44.8456 49.7992 45.1768C50.5987 45.5079 51.2819 46.0687 51.7627 46.7881C52.2434 47.5076 52.5 48.3535 52.5 49.2188C52.4987 50.3787 52.0373 51.4907 51.2171 52.3109C50.397 53.1311 49.2849 53.5924 48.125 53.5938V53.5938ZM59.0625 17.5C58.1972 17.5 57.3513 17.2434 56.6319 16.7627C55.9124 16.2819 55.3517 15.5987 55.0205 14.7992C54.6894 13.9998 54.6027 13.1201 54.7716 12.2715C54.9404 11.4228 55.357 10.6433 55.9689 10.0314C56.5808 9.41955 57.3603 9.00288 58.209 8.83407C59.0576 8.66525 59.9373 8.75189 60.7367 9.08303C61.5362 9.41416 62.2194 9.97492 62.7002 10.6944C63.1809 11.4138 63.4375 12.2597 63.4375 13.125C63.4362 14.2849 62.9748 15.397 62.1546 16.2172C61.3345 17.0373 60.2224 17.4987 59.0625 17.5Z" fill="white"/>
</svg>
