<svg width="70" height="70" viewBox="0 0 70 70" fill="none" xmlns="http://www.w3.org/2000/svg">
<path d="M35 0C15.6719 0 0 15.6719 0 35C0 54.3281 15.6719 70 35 70C54.3281 70 70 54.3281 70 35C70 15.6719 54.3281 0 35 0ZM35 64.0625C18.9531 64.0625 5.9375 51.0469 5.9375 35C5.9375 18.9531 18.9531 5.9375 35 5.9375C51.0469 5.9375 64.0625 18.9531 64.0625 35C64.0625 51.0469 51.0469 64.0625 35 64.0625ZM38.7266 33.1875L36.7422 32.7266V22.2344C39.7109 22.6406 41.5469 24.5 41.8594 26.7812C41.8984 27.0938 42.1641 27.3203 42.4766 27.3203H45.9844C46.3516 27.3203 46.6406 27 46.6094 26.6328C46.1328 21.7656 42.125 18.6406 36.7734 18.1016V15.5469C36.7734 15.2031 36.4922 14.9219 36.1484 14.9219H33.9531C33.6094 14.9219 33.3281 15.2031 33.3281 15.5469V18.125C27.7969 18.6641 23.4688 21.7188 23.4688 27.4219C23.4688 32.7031 27.3594 35.25 31.4453 36.2266L33.375 36.7188V47.8672C29.9219 47.4062 27.9844 45.5625 27.5859 43.0781C27.5391 42.7812 27.2734 42.5625 26.9688 42.5625H23.3594C22.9922 42.5625 22.7031 42.875 22.7344 43.2422C23.0859 47.5391 26.3438 51.4922 33.2969 52V54.4531C33.2969 54.7969 33.5781 55.0781 33.9219 55.0781H36.1406C36.4844 55.0781 36.7656 54.7969 36.7656 54.4453L36.75 51.9688C42.8672 51.4297 47.2422 48.1562 47.2422 42.2812C47.2344 36.8594 43.7891 34.4375 38.7266 33.1875ZM33.3672 31.9219C32.9297 31.7969 32.5625 31.6797 32.1953 31.5312C29.5547 30.5781 28.3281 29.0391 28.3281 27.0547C28.3281 24.2188 30.4766 22.6016 33.3672 22.2344V31.9219ZM36.7422 47.8906V37.4453C36.9844 37.5156 37.2031 37.5703 37.4297 37.6172C41.125 38.7422 42.3672 40.3047 42.3672 42.7031C42.3672 45.7578 40.0703 47.5938 36.7422 47.8906Z" fill="white"/>
</svg>
